<?xml version="1.0" encoding="utf-8"?>
<!-- Generator: Adobe Illustrator 16.0.0, SVG Export Plug-In . SVG Version: 6.00 Build 0)  -->
<!DOCTYPE svg PUBLIC "-//W3C//DTD SVG 1.1//EN" "http://www.w3.org/Graphics/SVG/1.1/DTD/svg11.dtd">
<svg version="1.1" id="Ultraschall" xmlns="http://www.w3.org/2000/svg" xmlns:xlink="http://www.w3.org/1999/xlink" x="0px"
	 y="0px" width="1417.32px" height="1417.32px" viewBox="0 0 1417.32 1417.32" enable-background="new 0 0 1417.32 1417.32"
	 xml:space="preserve">
<rect fill-rule="evenodd" clip-rule="evenodd" width="1417.32" height="1417.32"/>
<path id="signet" fill-rule="evenodd" clip-rule="evenodd" fill="#FFFFFF" d="M540.232,652.726
	c0-51.713,23.325-97.961,60.003-128.861c-3.923-6.207-7.338-12.763-10.171-19.626c-43.289,34.771-71.008,88.135-71.008,147.98
	c0,53.223,21.928,101.318,57.232,135.772c20.076,7.811,41.017,13.882,62.636,18.054
	C580.717,779.515,540.232,720.866,540.232,652.726z M836.044,652.337c0-38.991-17.531-73.873-45.118-97.251
	c-7.195,5.871-15.045,10.96-23.408,15.186c25.621,18.338,42.336,48.326,42.336,82.236c0,55.826-45.257,101.084-101.087,101.084
	c-55.829,0-101.087-45.258-101.087-101.084c0-34.143,16.946-64.312,42.869-82.614c-8.406-4.316-16.292-9.5-23.502-15.482
	c-28.043,23.378-45.897,58.563-45.897,97.925c0,70.385,57.06,127.445,127.449,127.445
	C778.982,779.782,836.044,722.722,836.044,652.337z M580.33,448.798v-16.77c-75.778,44.239-126.702,126.412-126.702,220.486
	c0,22.104,2.814,43.553,8.099,64.006c6.804,6.256,13.836,12.268,21.102,17.998c-9.353-25.69-14.459-53.417-14.459-82.338
	C468.369,566.604,513.04,491.469,580.33,448.798z M838.471,432.77v16.487c66.881,42.75,111.224,117.657,111.224,202.923
	c0,28.404-4.936,55.654-13.973,80.952c6.987-5.578,13.761-11.411,20.315-17.48c5.143-20.191,7.881-41.345,7.881-63.138
	C963.918,558.96,913.553,477.18,838.471,432.77z M828.435,505.004c-2.892,6.882-6.389,13.442-10.38,19.656
	c36.146,30.896,59.086,76.79,59.086,128.065c0,67.986-40.302,126.525-98.299,153.14c21.707-4.249,42.729-10.403,62.869-18.32
	c35.039-34.421,56.778-82.333,56.778-135.327C898.489,592.811,871.177,539.792,828.435,505.004z M838.471,349.896v8.645
	c104.131,46.137,179.146,145.982,189.915,264.403c2.519-4.603,4.932-9.27,7.257-13.99
	C1020.105,492.087,943.252,394.598,838.471,349.896z M580.33,357.724v-7.794c-105.718,45.134-182.994,144.005-197.516,262.295
	c1.848,3.66,3.75,7.286,5.717,10.875C399.313,503.904,475.183,403.509,580.33,357.724z M708.257,720.436
	c37.633,0,68.142-30.505,68.142-68.139c0-37.632-30.509-68.141-68.142-68.141c-37.634,0-68.142,30.509-68.142,68.141
	C640.115,689.93,670.623,720.436,708.257,720.436z"/>
<path id="text" fill="#FFFFFF" d="M263.463,889.798v71.748c0,25.844-11.748,38.314-35.962,38.314
	c-24.216,0-35.962-12.471-35.962-38.314v-71.748h-13.012v71.028c0,32.892,17.349,50.961,48.974,50.961s48.975-18.069,48.975-50.961
	v-71.028H263.463z M298.155,997.693V889.798h-13.013v120.544h74.637v-12.648H298.155z M326.161,889.798v12.654h42.651v107.89h13.01
	v-107.89h42.469v-12.654H326.161z M487.354,959.741c5.602-1.086,27.648-7.23,27.648-34.881c0-23.131-14.817-35.062-40.841-35.062
	h-44.275v120.544h13.011v-48.613h30.722l31.445,48.613h15.361L487.354,959.741z M473.438,949.441h-30.541v-47.351h30.541
	c25.301,0,28.554,12.648,28.554,23.674C501.992,936.791,498.739,949.441,473.438,949.441z M585.836,889.798h-13.012l-48.07,120.544
	h14.095l14.458-37.591h52.047l14.458,37.591h13.915L585.836,889.798z M558.187,960.283l21.144-55.119l21.144,55.119H558.187z
	 M679.26,888.717c-23.313,0-44.639,11.022-44.639,37.409c0,45.001,55.481,31.988,55.481,48.613c0,7.049-8.494,10.122-16.808,10.122
	c-13.372,0-25.843-4.517-37.228-13.917v29.097c10.663,7.41,24.577,11.746,41.747,11.746c23.494,0,43.37-14.094,43.37-35.781
	c0-48.073-55.479-35.239-55.479-50.423c0-7.951,10.481-10.118,18.072-10.118c9.036,0,18.614,3.071,28.01,8.674v-27.11
	C702.391,891.969,691.006,888.717,679.26,888.717z M784.791,915.102c12.47,0,23.673,2.35,36.864,8.673v-26.928
	c-12.648-5.059-25.842-8.492-38.672-8.492c-25.842,0-56.564,10.663-56.564,61.628c0,50.963,30.723,61.624,56.564,61.624
	c12.83,0,26.023-3.434,38.672-8.492v-26.928c-13.191,6.323-24.395,8.675-36.864,8.675c-14.277,0-27.288-6.327-27.288-34.879
	C757.503,921.427,770.514,915.102,784.791,915.102z M900.807,889.798v47.536h-38.676v-47.536h-31.085v120.544h31.085v-47.529h38.676
	v47.529h31.08V889.798H900.807z M1011.757,889.798H982.48l-47.889,120.544h33.433l9.396-28.915h39.397l9.396,28.915h33.434
	L1011.757,889.798z M984.83,958.477l12.288-37.411l12.108,37.411H984.83z M1093.537,982.331v-92.533h-31.085v120.544h84.578v-28.011
	H1093.537z M1183.706,982.331v-92.533h-31.084v120.544h84.575v-28.011H1183.706z"/>
</svg>
